<svg version="1.2" xmlns="http://www.w3.org/2000/svg" viewBox="0 0 1920 1920" width="300" height="300">
	<style>
		.s0 { fill: #020202 } 
	</style>
	<path id="Path 0" fill-rule="evenodd" class="s0" d="m1090 268.81c3.58 0.17 10.1 1.19 14.5 2.26 4.4 1.07 11.38 3.56 15.5 5.52 4.13 1.96 10.2 5.52 13.5 7.9 3.3 2.38 8.31 6.74 11.13 9.67 2.83 2.94 6.94 8.04 9.14 11.34 2.2 3.3 4.89 7.8 5.97 10 1.09 2.2 2.91 6.7 4.04 10 1.14 3.3 3.67 14.44 5.64 24.75 1.97 10.31 3.59 19.76 3.6 21 0 1.24 0.34 2.83 0.75 3.55 0.58 1.02 8.19-0.07 36.23-5.21 19.53-3.58 39.78-7.22 45-8.1 5.22-0.88 34.7-6.27 65.5-11.98 30.8-5.71 66.58-12.23 79.5-14.5 20.51-3.58 24.14-3.97 28.5-3.04 2.75 0.59 7.36 2.41 10.25 4.05 3.09 1.75 6.66 4.93 8.69 7.73 1.89 2.61 4.11 7.23 4.94 10.25 0.83 3.02 3.39 15.85 5.68 28.5 2.29 12.65 4.13 25.7 4.08 29-0.05 3.3-0.62 7.57-1.26 9.5-0.64 1.93-2.45 5.41-4.02 7.75-1.58 2.34-4.77 5.55-7.11 7.14-2.34 1.59-6.72 3.59-9.75 4.45-3.03 0.86-16.53 3.6-30 6.09-13.47 2.5-30.12 5.47-37 6.62-6.87 1.14-30.28 5.4-52 9.46-21.72 4.06-48.28 9-59 10.98-10.72 1.97-21.08 3.83-23 4.13-1.92 0.29-16.55 2.93-32.5 5.85-15.95 2.93-45.42 8.32-65.5 11.99-20.08 3.67-56.97 10.45-82 15.07-25.03 4.62-54.05 9.99-64.5 11.93-10.45 1.94-21.02 3.8-23.5 4.13-2.48 0.33-28.12 5.03-57 10.44-28.87 5.42-56.77 10.57-62 11.46-5.23 0.89-10.85 1.83-12.5 2.09-1.65 0.26-24.83 4.53-51.5 9.49-26.67 4.97-53.23 9.88-59 10.92-5.77 1.04-17.25 3.07-25.5 4.52-8.25 1.45-36.38 6.62-62.5 11.5-26.12 4.88-53.13 9.81-60 10.97-6.87 1.16-27.12 4.82-45 8.13-30.13 5.6-32.94 5.96-38.5 4.96-3.3-0.6-8.7-2.36-12-3.91-3.3-1.56-8.02-4.88-10.5-7.38-2.48-2.51-5.81-6.97-7.41-9.92-2.2-4.05-3.73-9.75-6.28-23.36-2.03-10.77-3.36-21.01-3.34-25.5 0.03-4.13 0.41-9.08 0.84-11 0.44-1.92 1.95-5.52 3.37-8 1.42-2.48 3.87-6.03 5.45-7.9 1.58-1.87 4.67-4.61 6.87-6.1 2.2-1.48 6.02-3.44 8.5-4.35 2.48-0.92 23.85-5.27 47.5-9.68 23.65-4.41 52-9.57 63-11.46 11-1.9 36.65-6.58 57-10.41 20.35-3.83 45.1-8.4 55-10.17 9.9-1.76 18.12-3.26 18.27-3.32 0.15-0.06-0.89-7.09-2.31-15.61-1.42-8.52-3.28-19.55-4.12-24.5-1.04-6.07-1.36-12.09-0.98-18.5 0.31-5.23 1.48-12.99 2.6-17.25 1.12-4.26 3.25-10.34 4.73-13.5 1.48-3.16 4.35-8.23 6.38-11.25 2.03-3.02 5.66-7.71 8.06-10.41 2.41-2.69 6.85-6.81 9.87-9.14 3.02-2.33 8.65-5.84 12.5-7.81 3.85-1.97 9.48-4.44 12.5-5.49 3.02-1.05 12.7-3.3 21.5-5 8.8-1.69 22.98-4.25 31.5-5.67 8.52-1.43 35.75-6.37 60.5-10.99 24.75-4.62 52.88-9.79 62.5-11.5 9.63-1.7 41.58-7.55 71-13 29.42-5.45 55.75-10.04 58.5-10.2 2.75-0.16 7.92-0.15 11.5 0.02zm-88.5 76.69c-30.8 5.73-60.27 11.13-65.5 12-5.23 0.88-31.33 5.64-58 10.6-26.67 4.95-54.8 10.14-62.5 11.53-7.7 1.39-16.25 2.95-19 3.46-2.75 0.52-6.46 1.83-8.25 2.92-1.79 1.1-4.61 3.9-6.28 6.24-1.67 2.34-3.31 5.82-3.66 7.75-0.35 1.93-0.1 6.65 0.55 10.5 0.65 3.85 2.4 13.64 3.91 21.75 1.79 9.68 3.16 14.75 3.98 14.75 0.69 0 6.99-1.1 14-2.44 7.01-1.34 18.83-3.57 26.25-4.97 7.42-1.39 21.6-3.91 31.5-5.59 9.9-1.69 35.77-6.41 57.5-10.5 21.73-4.09 52.33-9.72 68-12.5 15.67-2.78 50.1-9.09 76.5-14.02 26.4-4.94 49.01-8.97 50.25-8.98 1.24 0 2.25-0.11 2.25-0.25 0-0.14-0.69-3.85-1.53-8.25-0.84-4.4-2.66-14.3-4.04-22-1.58-8.86-3.19-14.92-4.37-16.5-1.02-1.38-2.92-3.49-4.21-4.69-1.29-1.21-4.04-2.9-6.1-3.75-2.06-0.86-5.89-1.5-8.5-1.42-2.61 0.08-9.7 1-15.75 2.05-6.05 1.04-36.2 6.59-67 12.31zm-42.5 308.62c263.95-0.07 407.68 0.24 411.75 0.89 3.44 0.54 8.39 2.06 11 3.36 2.61 1.31 7.34 5.13 10.5 8.5 4.67 4.98 6.13 7.4 7.77 12.88 1.11 3.71 2.01 8.33 2 10.25-0.01 1.92-2.46 29.6-5.45 61.5-2.98 31.9-5.69 61.83-6.02 66.5-0.33 4.67-0.8 10.3-1.05 12.5-0.25 2.2-0.69 6.92-0.98 10.5-0.29 3.58-1.66 18.87-3.03 34-1.37 15.12-2.95 32-3.5 37.5-0.55 5.5-3.92 41.5-7.49 80-3.58 38.5-6.74 72.92-7.04 76.5-0.3 3.58-0.74 8.75-0.99 11.5-0.24 2.75-1.13 13.1-1.96 23-0.83 9.9-2.4 27.45-3.5 39-1.09 11.55-5.36 57-9.48 101-4.12 44-8.41 91.03-9.52 104.5-1.12 13.47-3.37 38.9-5 56.5-1.63 17.6-6.15 65.97-10.03 107.5-4.76 50.94-7.7 78.1-9.04 83.5-1.1 4.4-3.67 11.35-5.72 15.45-2.35 4.69-6.3 10.2-10.72 14.9-3.85 4.11-9.25 9.13-12 11.16-2.75 2.03-6.8 4.62-9 5.75-2.2 1.13-6.47 2.96-9.5 4.07-3.03 1.1-8.76 2.72-12.75 3.59-6.52 1.42-36.63 1.58-298.25 1.58-290.66 0-291.01 0-300.25-2.07-5.09-1.14-12.4-3.53-16.25-5.3-3.85-1.78-9.48-5.08-12.5-7.33-3.02-2.26-8.04-6.73-11.15-9.95-3.11-3.22-7.35-8.55-9.41-11.85-2.07-3.3-4.77-8.7-5.99-12-1.22-3.3-2.72-8.47-3.33-11.5-0.61-3.03-4.27-39.25-8.13-80.5-3.87-41.25-8.37-89.4-10-107-1.63-17.6-3.88-43.03-5-56.5-1.11-13.47-5.4-60.5-9.52-104.5-4.12-44-8.39-89.45-9.48-101-1.1-11.55-2.67-29.1-3.5-39-0.83-9.9-1.72-20.25-1.96-23-0.25-2.75-0.69-7.92-0.99-11.5-0.3-3.58-3.46-38-7.04-76.5-3.57-38.5-6.94-74.5-7.49-80-0.55-5.5-2.13-22.38-3.5-37.5-1.37-15.13-2.74-30.42-3.04-34-0.29-3.58-0.74-8.52-1-11-0.25-2.48-0.67-7.42-0.93-11-0.27-3.58-3.04-34.17-6.18-68-4.97-53.76-5.54-62.19-4.51-67 0.65-3.02 2.06-7.3 3.15-9.5 1.08-2.2 4.11-6.19 6.73-8.87 2.62-2.68 6.91-5.94 9.52-7.25 2.61-1.31 7.11-2.78 10-3.26 2.97-0.5 181.41-0.93 410.75-1zm-262.47 116.9l-2.76 3.48c0.99 31.77 1.51 45.27 1.8 50.5 0.28 5.23 3.41 72.05 6.94 148.5 3.54 76.45 8.01 173.65 9.94 216 1.93 42.35 3.75 82.4 4.04 89 0.3 6.6 0.98 22.8 1.51 36 0.53 13.2 1.23 30.08 1.55 37.5 0.31 7.42 2.29 50.62 4.4 96 3 64.92 4.13 83.14 5.3 85.5 0.82 1.65 2.89 4.24 4.62 5.75 1.72 1.51 4.82 3.03 6.88 3.37 2.06 0.35 5.33 0.35 7.25 0.02 1.92-0.33 4.63-1.44 6-2.47 1.38-1.02 3.53-3.39 4.78-5.26 1.82-2.72 2.27-4.77 2.25-10.16-0.02-3.71-1.59-40.39-3.49-81.5-1.91-41.11-3.72-80.15-4.03-86.75-0.31-6.6-1.66-36.08-3-65.5-1.34-29.42-2.69-59.13-3-66-0.3-6.88-1.22-29.15-2.04-49.5-0.81-20.35-4.62-104.28-8.45-186.5-3.83-82.23-7.23-155.35-7.54-162.5-0.32-7.15-1.01-21.44-1.53-31.75-0.52-10.31-1.43-19.99-2.02-21.5-0.58-1.51-2.05-3.82-3.25-5.13-1.2-1.31-3.64-2.99-5.43-3.75-1.79-0.75-5.19-1.37-7.57-1.37-2.93 0-5.29 0.73-7.35 2.27-1.67 1.25-4.28 3.84-5.8 5.75zm253.04-4.55c-1.62 1.11-3.75 3.83-4.74 6.03-1.71 3.82-1.79 20.92-1.82 380.5l-0.03 376.5c3.74 7.43 5.91 9.79 8.52 11.29 3.14 1.8 5.18 2.22 9.5 1.96 3.91-0.24 6.45-1.04 8.8-2.79 1.81-1.35 4.17-4.26 5.23-6.46 1.91-3.94 1.94-10.08 1.98-380.5l0.03-376.5c-3.83-7.36-6.12-9.81-8.62-11.23-2.54-1.45-5.51-2.22-8.42-2.17-2.47 0.03-5.17 0.34-6 0.7-0.82 0.35-2.82 1.55-4.43 2.67zm246.78 2.04c-0.67 1.09-1.69 3.23-2.28 4.74-0.59 1.51-1.5 11.19-2.02 21.5-0.52 10.31-1.21 24.6-1.52 31.75-0.32 7.15-2.15 46.98-4.07 88.5-1.93 41.52-5.05 108.58-6.95 149-1.9 40.42-4.14 90.6-4.97 111.5-0.83 20.9-1.76 43.17-2.06 49.5-0.3 6.33-1.65 36.03-3 66-1.35 29.97-2.71 59.67-3.01 66-0.31 6.33-2.11 45.14-4.01 86.25-1.9 41.11-3.47 77.79-3.49 81.5-0.02 5.39 0.43 7.44 2.25 10.16 1.25 1.87 3.41 4.24 4.78 5.26 1.38 1.03 4.08 2.14 6 2.47 1.92 0.33 5.19 0.33 7.25-0.02 2.06-0.34 5.16-1.86 6.88-3.37 1.73-1.51 3.8-4.1 4.62-5.75 1.17-2.36 2.3-20.58 5.3-85.5 2.11-45.38 4.08-88.8 4.4-96.5 0.31-7.7 0.78-18.95 1.05-25 0.26-6.05 0.7-16.17 0.97-22.5 0.28-6.33 0.75-17.58 1.05-25 0.3-7.42 1.86-42.53 3.47-78 1.61-35.47 3.18-69.67 3.49-76 0.3-6.33 3.45-74.28 6.99-151 3.54-76.73 6.67-143.55 6.95-148.5 0.28-4.95 0.81-18.45 1.16-30l0.65-21c-3.74-5.42-6.38-8.03-8.28-9.28-2.46-1.62-4.88-2.27-8.45-2.24-2.75 0.01-6.56 0.82-8.47 1.78-1.91 0.97-4.02 2.65-4.68 3.75z"/>
</svg>